<?xml version="1.0" encoding="utf-8"?>
<!-- Generator: Adobe Illustrator 16.0.0, SVG Export Plug-In . SVG Version: 6.00 Build 0)  -->
<!DOCTYPE svg PUBLIC "-//W3C//DTD SVG 1.1//EN" "http://www.w3.org/Graphics/SVG/1.1/DTD/svg11.dtd">
<svg version="1.1" id="Layer_1" xmlns="http://www.w3.org/2000/svg" xmlns:xlink="http://www.w3.org/1999/xlink" x="0px" y="0px"
	 width="505px" height="186px" viewBox="0 0 505 186" enable-background="new 0 0 505 186" xml:space="preserve">
<path fill="#BCBEC0" d="M128.494,143.143c-9.995,4.998-19.62,7.518-31.249,7.518c-36.156,0-62.443-25.383-62.622-56.641
	c0.179-31.257,26.466-56.641,62.622-56.641c10.812,0,19.851,2.287,29.317,6.623v-9.373c-9.645-3.848-18.616-5.863-29.317-5.863
	c-40.8,0-70.887,29.092-71.235,64.968h-0.008c0,0.097,0.003,0.189,0.004,0.285c0,0.095-0.004,0.188-0.004,0.285h0.008
	c0.349,35.877,30.436,64.969,71.235,64.969c13.076,0,24.146-2.887,35.404-8.578C130.905,148.184,129.546,145.635,128.494,143.143"/>
<path fill="#BCBEC0" d="M126.151,127.743c-7.275,3.423-14.716,6.964-27.396,6.964c-28.103,0-47.838-18.229-48.018-40.688
	C50.917,71.56,70.654,53.33,98.756,53.33c12.68,0,20.12,3.541,27.396,6.965v-9.448c-7.335-3.157-15.09-6.13-27.396-6.13
	c-32.748,0-56.28,21.951-56.623,49.039h-0.017c0,0.088,0.009,0.176,0.009,0.264s-0.009,0.174-0.009,0.263h0.017
	c0.343,27.087,23.875,49.038,56.623,49.038c12.377,0,20.769-3.233,28.125-6.411C126.225,132.081,126.151,127.743,126.151,127.743"/>
<path fill="#FFFFFF" d="M331.654,141.969c0-0.332-0.268-0.59-0.59-0.59h-4.583c-0.333,0-0.59,0.258-0.59,0.59
	c0,0.322,0.257,0.602,0.59,0.602h1.696v5.73c0,0.332,0.268,0.59,0.59,0.59c0.333,0,0.59-0.258,0.59-0.59v-5.73h1.707
	C331.387,142.568,331.654,142.291,331.654,141.969 M319.271,147.807L319.271,147.807c0.611,0.482,1.588,1.062,2.747,1.073
	c0.763,0,1.461-0.228,1.985-0.612c0.535-0.387,0.923-0.977,0.923-1.662c0-0.334-0.098-0.654-0.258-0.912
	c-0.245-0.397-0.633-0.676-1.072-0.892c-0.43-0.204-0.935-0.343-1.479-0.45h-0.022c-0.579-0.106-1.062-0.278-1.342-0.473
	c-0.141-0.097-0.235-0.193-0.288-0.277c-0.056-0.086-0.075-0.172-0.075-0.302c0-0.226,0.119-0.461,0.407-0.676
	c0.29-0.215,0.719-0.364,1.201-0.364c0.653,0,1.181,0.322,1.729,0.687c0.256,0.173,0.6,0.097,0.761-0.16
	c0.172-0.247,0.097-0.59-0.149-0.763c-0.548-0.354-1.31-0.857-2.34-0.857c-0.696,0-1.352,0.204-1.855,0.566
	c-0.494,0.367-0.857,0.925-0.857,1.567c0,0.322,0.085,0.622,0.245,0.88c0.236,0.375,0.592,0.645,0.999,0.838
	c0.406,0.192,0.88,0.321,1.383,0.418h0.022c0.634,0.119,1.159,0.301,1.471,0.506c0.159,0.106,0.257,0.214,0.322,0.32
	c0.062,0.107,0.096,0.203,0.096,0.344c0,0.269-0.14,0.537-0.462,0.771c-0.322,0.236-0.805,0.396-1.342,0.396
	c-0.762,0.012-1.576-0.438-2.049-0.825c-0.235-0.193-0.59-0.161-0.784,0.075C319.002,147.259,319.035,147.613,319.271,147.807
	 M314.248,145.939l0.87-2.309l0.868,2.309H314.248z M316.953,148.516c0.088,0.235,0.312,0.375,0.548,0.375
	c0.073,0,0.149-0.011,0.203-0.033c0.312-0.117,0.46-0.461,0.355-0.771l-2.373-6.319c-0.097-0.236-0.321-0.388-0.568-0.377
	c-0.235-0.011-0.473,0.141-0.567,0.377l-2.373,6.319c-0.107,0.312,0.044,0.653,0.354,0.771c0.065,0.022,0.129,0.033,0.203,0.033
	c0.236,0,0.461-0.14,0.559-0.375l0.526-1.396h2.606L316.953,148.516z M307.64,142.568h1.319c0.623,0,1.105,0.496,1.114,1.117
	c-0.009,0.602-0.491,1.096-1.114,1.096h-1.319V142.568z M311.267,143.686c0-1.275-1.029-2.307-2.308-2.307h-1.909h-0.013
	c-0.321,0-0.59,0.258-0.59,0.59v6.332c0,0.322,0.269,0.59,0.59,0.59c0.333,0,0.603-0.268,0.603-0.59v-2.33h1.319
	C310.237,145.971,311.267,144.941,311.267,143.686 M299.099,144.781h-1.319v-2.213h1.319c0.611,0,1.105,0.496,1.105,1.117
	C300.204,144.287,299.71,144.781,299.099,144.781 M301.33,147.634c-0.021-0.104-0.054-0.311-0.041-0.633
	c0-0.45-0.141-0.847-0.355-1.158c-0.105-0.161-0.233-0.288-0.376-0.397c0.515-0.428,0.839-1.051,0.839-1.76
	c0-1.275-1.02-2.307-2.298-2.307h-1.909h-0.012c-0.331,0-0.59,0.258-0.59,0.59v6.332c0,0.322,0.259,0.59,0.59,0.59
	c0.333,0,0.602-0.268,0.602-0.59v-2.33h1.268c0.096,0.023,0.375,0.107,0.599,0.258c0.131,0.088,0.259,0.192,0.323,0.312
	c0.075,0.118,0.118,0.258,0.129,0.461c0,0.591,0.074,0.979,0.225,1.288c0.088,0.151,0.205,0.29,0.345,0.375
	c0.149,0.099,0.312,0.119,0.419,0.119h0.011c0.107,0,0.194-0.021,0.235-0.032c0.311-0.107,0.482-0.439,0.376-0.751
	C301.641,147.816,301.503,147.688,301.33,147.634 M294.325,145.789v-3.82c0-0.332-0.26-0.59-0.594-0.59c-0.331,0-0.6,0.258-0.6,0.59
	v3.82c0,1.052-0.847,1.91-1.91,1.91c-1.052,0-1.909-0.858-1.909-1.91v-3.82c0-0.332-0.279-0.59-0.601-0.59
	c-0.334,0-0.59,0.258-0.59,0.59v3.82c0,1.706,1.371,3.102,3.1,3.102C292.939,148.891,294.325,147.495,294.325,145.789
	 M284.151,146.895c-0.449,0.482-1.052,0.772-1.693,0.772c-0.688,0-1.288-0.29-1.739-0.772c-0.45-0.461-0.729-1.138-0.729-1.865
	c0-0.73,0.279-1.406,0.729-1.881c0.451-0.481,1.052-0.76,1.739-0.76c0.643,0,1.244,0.277,1.693,0.76
	c0.44,0.475,0.73,1.149,0.73,1.881C284.882,145.757,284.592,146.434,284.151,146.895 M282.457,141.165
	c-1.03,0-1.976,0.438-2.629,1.146c-0.665,0.709-1.062,1.653-1.062,2.717c0,1.062,0.397,2.017,1.062,2.716
	c0.653,0.696,1.599,1.147,2.629,1.147c0.984,0,1.931-0.451,2.563-1.147c0.664-0.699,1.084-1.653,1.084-2.716
	s-0.42-2.008-1.084-2.717C284.388,141.604,283.442,141.165,282.457,141.165 M270.986,148.891c0.912,0,1.761-0.312,2.438-0.836
	c0.104-0.076,0.171-0.162,0.203-0.258v-0.012c0.012-0.021,0.012-0.032,0.021-0.055c0.013-0.063,0.034-0.106,0.034-0.182v-2.372
	c0-0.343-0.281-0.601-0.624-0.601h-0.009h-0.012h-2.113c-0.334,0-0.613,0.258-0.613,0.601c0,0.333,0.279,0.611,0.613,0.611h1.535
	v1.47c-0.431,0.247-0.937,0.408-1.473,0.408c-0.771,0-1.447-0.29-1.931-0.782c-0.505-0.483-0.806-1.138-0.806-1.847
	c0-0.73,0.301-1.385,0.806-1.866c0.482-0.494,1.159-0.782,1.931-0.782c0.645,0,1.233,0.223,1.695,0.578
	c0.269,0.215,0.665,0.16,0.869-0.097c0.204-0.269,0.161-0.665-0.117-0.869c-0.667-0.526-1.535-0.837-2.447-0.837
	c-2.178,0-3.959,1.716-3.959,3.873C267.027,147.184,268.809,148.891,270.986,148.891 M260.375,143.848l3.433,4.764
	c0.011,0.021,0.033,0.043,0.054,0.064c0.107,0.129,0.269,0.215,0.44,0.215c0.321,0,0.59-0.268,0.59-0.59v-6.234
	c0-0.312-0.269-0.58-0.59-0.58s-0.579,0.27-0.579,0.58v4.42l-3.467-4.795c-0.184-0.258-0.547-0.312-0.815-0.129
	c-0.16,0.117-0.247,0.312-0.234,0.492v0.012v6.234c0,0.322,0.257,0.59,0.59,0.59c0.311,0,0.58-0.268,0.58-0.59L260.375,143.848
	L260.375,143.848z M256.104,148.301L256.104,148.301c0,0.332,0.257,0.59,0.59,0.59c0.321,0,0.604-0.258,0.604-0.59v-6.332
	c0-0.332-0.281-0.59-0.604-0.59c-0.333,0-0.59,0.258-0.59,0.59V148.301z M249.043,143.848l3.434,4.764
	c0.012,0.021,0.031,0.043,0.056,0.064c0.105,0.129,0.268,0.215,0.438,0.215c0.322,0,0.59-0.268,0.59-0.59v-6.234
	c0-0.312-0.268-0.58-0.59-0.58s-0.58,0.27-0.58,0.58v4.42l-3.465-4.795c-0.183-0.258-0.549-0.312-0.816-0.129
	c-0.159,0.117-0.246,0.312-0.235,0.492v0.012v6.234c0,0.322,0.258,0.59,0.592,0.59c0.311,0,0.578-0.268,0.578-0.59L249.043,143.848
	L249.043,143.848z M244.771,148.301L244.771,148.301c0,0.332,0.259,0.59,0.59,0.59c0.322,0,0.604-0.258,0.604-0.59v-6.332
	c0-0.332-0.281-0.59-0.604-0.59c-0.331,0-0.59,0.258-0.59,0.59V148.301z M239.623,145.479h1.341c0.61,0.011,1.104,0.492,1.104,1.105
	c0,0.623-0.493,1.104-1.104,1.115h-1.341V145.479z M239.623,142.568h0.922c0.473,0,0.849,0.377,0.849,0.85s-0.376,0.869-0.849,0.869
	h-0.922V142.568z M239.021,148.891c0.013,0,0.013-0.011,0.032-0.011c0,0,0,0.011,0.011,0.011h1.899c1.267,0,2.296-1.029,2.296-2.307
	c0-0.816-0.439-1.535-1.083-1.941c0.257-0.345,0.407-0.764,0.407-1.225c0-1.127-0.912-2.039-2.039-2.039h-1.48h-0.011h-0.032
	c-0.321,0-0.591,0.258-0.591,0.59v6.332C238.431,148.623,238.699,148.891,239.021,148.891 M235.34,141.379L235.34,141.379h-0.01
	c-0.193,0-0.364,0.086-0.482,0.247l-2.135,2.962l-2.136-2.962c-0.106-0.161-0.301-0.247-0.473-0.247h-0.033
	c-0.321,0-0.59,0.27-0.59,0.59v6.332c0,0.322,0.269,0.59,0.59,0.59c0.334,0,0.603-0.268,0.603-0.59v-4.519l1.535,2.146
	c0.117,0.161,0.299,0.247,0.493,0.247h0.012h0.01c0.193,0,0.364-0.086,0.482-0.247l1.545-2.146v4.519c0,0.322,0.257,0.59,0.589,0.59
	c0.322,0,0.603-0.268,0.603-0.59v-6.332C235.942,141.646,235.662,141.391,235.34,141.379 M225.523,146.895
	c-0.451,0.482-1.052,0.772-1.695,0.772c-0.687,0-1.287-0.29-1.738-0.772c-0.45-0.461-0.729-1.138-0.729-1.865
	c0-0.73,0.279-1.406,0.729-1.881c0.451-0.481,1.052-0.76,1.738-0.76c0.644,0,1.245,0.277,1.695,0.76
	c0.44,0.475,0.729,1.149,0.729,1.881C226.253,145.757,225.964,146.434,225.523,146.895 M223.827,141.165
	c-1.03,0-1.975,0.438-2.628,1.146c-0.666,0.709-1.062,1.653-1.062,2.717c0,1.062,0.396,2.017,1.062,2.716
	c0.654,0.696,1.599,1.147,2.628,1.147c0.987,0,1.932-0.451,2.564-1.147c0.666-0.699,1.084-1.653,1.084-2.716
	s-0.418-2.008-1.084-2.717C225.759,141.604,224.815,141.165,223.827,141.165 M215.909,148.891c0.943,0,1.802-0.312,2.479-0.836
	c0.258-0.203,0.3-0.591,0.107-0.859c-0.215-0.258-0.611-0.301-0.858-0.117c-0.482,0.387-1.062,0.59-1.727,0.59
	c-0.74,0-1.428-0.301-1.933-0.771c-0.481-0.475-0.783-1.139-0.783-1.866c0-0.73,0.302-1.374,0.783-1.867
	c0.505-0.474,1.192-0.772,1.933-0.772c0.666,0,1.255,0.203,1.727,0.59c0.248,0.193,0.644,0.149,0.858-0.119
	c0.192-0.268,0.15-0.644-0.107-0.856c-0.676-0.526-1.535-0.837-2.479-0.837c-2.146,0.011-3.928,1.738-3.938,3.863
	C211.982,147.163,213.763,148.891,215.909,148.891"/>
<path fill="#C6BA2F" d="M459.214,148.891l0.009-0.011c0,0,0,0.011,0.021,0.011h3.478c0.312,0,0.59-0.268,0.59-0.59
	c0-0.334-0.277-0.602-0.59-0.602h-2.907v-1.975h2.5c0.322,0,0.59-0.269,0.59-0.602c0-0.312-0.268-0.59-0.59-0.59h-2.5v-1.965h2.907
	c0.312,0,0.59-0.269,0.59-0.602c0-0.332-0.277-0.59-0.59-0.59h-3.478h-0.021h-0.009c-0.334,0-0.594,0.258-0.594,0.59v6.332
	C458.62,148.623,458.88,148.891,459.214,148.891 M454.383,144.781h-1.319v-2.213h1.319c0.612,0,1.105,0.496,1.105,1.117
	C455.489,144.287,454.995,144.781,454.383,144.781 M456.615,147.634c-0.021-0.104-0.054-0.311-0.042-0.633
	c0-0.45-0.14-0.847-0.354-1.158c-0.107-0.161-0.236-0.288-0.375-0.397c0.515-0.428,0.837-1.051,0.837-1.76
	c0-1.275-1.021-2.307-2.298-2.307h-1.909h-0.01c-0.334,0-0.592,0.258-0.592,0.59v6.332c0,0.322,0.258,0.59,0.592,0.59
	c0.332,0,0.6-0.268,0.6-0.59v-2.33h1.267c0.098,0.023,0.375,0.107,0.603,0.258c0.128,0.088,0.257,0.192,0.321,0.312
	c0.074,0.118,0.116,0.258,0.129,0.461c0,0.591,0.074,0.979,0.225,1.288c0.087,0.151,0.205,0.29,0.345,0.375
	c0.148,0.099,0.312,0.119,0.417,0.119h0.012c0.106,0,0.193-0.021,0.235-0.032c0.312-0.107,0.483-0.439,0.376-0.751
	C456.928,147.816,456.787,147.688,456.615,147.634 M449.609,145.789v-3.82c0-0.332-0.259-0.59-0.59-0.59
	c-0.334,0-0.602,0.258-0.602,0.59v3.82c0,1.052-0.849,1.91-1.91,1.91c-1.05,0-1.91-0.858-1.91-1.91v-3.82
	c0-0.332-0.278-0.59-0.602-0.59c-0.332,0-0.59,0.258-0.59,0.59v3.82c0,1.706,1.374,3.102,3.102,3.102
	C448.225,148.891,449.609,147.495,449.609,145.789 M441.733,141.969c0-0.332-0.268-0.59-0.591-0.59h-4.582
	c-0.332,0-0.59,0.258-0.59,0.59c0,0.322,0.258,0.602,0.59,0.602h1.697v5.73c0,0.332,0.267,0.59,0.59,0.59
	c0.332,0,0.59-0.258,0.59-0.59v-5.73h1.705C441.466,142.568,441.733,142.291,441.733,141.969 M434.137,145.789v-3.82
	c0-0.332-0.258-0.59-0.591-0.59s-0.602,0.258-0.602,0.59v3.82c0,1.052-0.848,1.91-1.911,1.91c-1.051,0-1.909-0.858-1.909-1.91v-3.82
	c0-0.332-0.277-0.59-0.602-0.59c-0.331,0-0.59,0.258-0.59,0.59v3.82c0,1.706,1.373,3.102,3.101,3.102
	C432.752,148.891,434.137,147.495,434.137,145.789 M422.13,148.891c0.332,0,0.601-0.268,0.601-0.59v-2.574h2.499
	c0.322,0,0.591-0.27,0.591-0.603c0-0.312-0.269-0.59-0.591-0.59h-2.499v-1.966h2.907c0.312,0,0.591-0.268,0.591-0.601
	c0-0.321-0.279-0.59-0.591-0.59h-3.478h-0.021h-0.011c-0.332,0-0.59,0.269-0.59,0.59v6.332
	C421.539,148.623,421.798,148.891,422.13,148.891 M414.189,144.781h-1.32v-2.213h1.32c0.611,0,1.105,0.496,1.105,1.117
	C415.295,144.287,414.801,144.781,414.189,144.781 M416.421,147.634c-0.021-0.104-0.055-0.311-0.044-0.633
	c0-0.45-0.14-0.847-0.354-1.158c-0.108-0.161-0.237-0.288-0.376-0.397c0.516-0.428,0.836-1.051,0.836-1.76
	c0-1.275-1.02-2.307-2.295-2.307h-1.91h-0.012c-0.332,0-0.59,0.258-0.59,0.59v6.332c0,0.322,0.258,0.59,0.59,0.59
	c0.334,0,0.602-0.268,0.602-0.59v-2.33h1.267c0.097,0.023,0.376,0.107,0.602,0.258c0.129,0.088,0.258,0.192,0.322,0.312
	c0.075,0.118,0.118,0.258,0.129,0.461c0,0.591,0.074,0.979,0.226,1.288c0.085,0.151,0.203,0.29,0.344,0.375
	c0.149,0.099,0.312,0.119,0.418,0.119h0.011c0.107,0,0.191-0.021,0.236-0.032c0.311-0.107,0.482-0.439,0.376-0.751
	C416.731,147.816,416.593,147.688,416.421,147.634 M409.413,145.789v-3.82c0-0.332-0.258-0.59-0.59-0.59s-0.601,0.258-0.601,0.59
	v3.82c0,1.052-0.851,1.91-1.91,1.91c-1.053,0-1.911-0.858-1.911-1.91v-3.82c0-0.332-0.277-0.59-0.599-0.59
	c-0.334,0-0.591,0.258-0.591,0.59v3.82c0,1.706,1.372,3.102,3.101,3.102C408.03,148.891,409.413,147.495,409.413,145.789
	 M399.241,146.895c-0.45,0.482-1.052,0.772-1.694,0.772c-0.688,0-1.288-0.29-1.738-0.772c-0.451-0.461-0.729-1.138-0.729-1.865
	c0-0.73,0.278-1.406,0.729-1.881c0.45-0.481,1.052-0.76,1.738-0.76c0.644,0,1.244,0.277,1.694,0.76
	c0.44,0.475,0.729,1.149,0.729,1.881C399.972,145.757,399.683,146.434,399.241,146.895 M397.547,141.165
	c-1.03,0-1.975,0.438-2.629,1.146c-0.666,0.709-1.062,1.653-1.062,2.717c0,1.062,0.396,2.017,1.062,2.716
	c0.654,0.696,1.599,1.147,2.629,1.147c0.986,0,1.931-0.451,2.563-1.147c0.665-0.699,1.084-1.653,1.084-2.716
	s-0.419-2.008-1.084-2.717C399.478,141.604,398.533,141.165,397.547,141.165 M386.075,148.891c0.912,0,1.762-0.312,2.438-0.836
	c0.106-0.076,0.172-0.162,0.203-0.258v-0.012c0.011-0.021,0.011-0.032,0.021-0.055c0.012-0.063,0.032-0.106,0.032-0.182v-2.372
	c0-0.343-0.279-0.601-0.622-0.601h-0.011h-0.011h-2.113c-0.333,0-0.612,0.258-0.612,0.601c0,0.333,0.279,0.611,0.612,0.611h1.534
	v1.47c-0.432,0.247-0.935,0.408-1.472,0.408c-0.771,0-1.447-0.29-1.932-0.782c-0.504-0.483-0.804-1.138-0.804-1.847
	c0-0.73,0.3-1.385,0.804-1.866c0.483-0.494,1.159-0.782,1.932-0.782c0.645,0,1.233,0.223,1.696,0.578
	c0.268,0.215,0.665,0.16,0.869-0.097c0.203-0.269,0.161-0.665-0.119-0.869c-0.665-0.526-1.534-0.837-2.446-0.837
	c-2.179,0-3.959,1.716-3.959,3.873C382.116,147.184,383.897,148.891,386.075,148.891 M375.464,143.848l3.434,4.764
	c0.012,0.021,0.032,0.043,0.054,0.064c0.107,0.129,0.27,0.215,0.44,0.215c0.322,0,0.59-0.268,0.59-0.59v-6.234
	c0-0.312-0.268-0.58-0.59-0.58s-0.579,0.27-0.579,0.58v4.42l-3.467-4.795c-0.184-0.258-0.547-0.312-0.814-0.129
	c-0.161,0.117-0.247,0.312-0.234,0.492v0.012v6.234c0,0.322,0.256,0.59,0.59,0.59c0.311,0,0.578-0.268,0.578-0.59L375.464,143.848
	L375.464,143.848z M371.194,148.301L371.194,148.301c0,0.332,0.257,0.59,0.59,0.59c0.321,0,0.602-0.258,0.602-0.59v-6.332
	c0-0.332-0.279-0.59-0.602-0.59c-0.333,0-0.59,0.258-0.59,0.59V148.301z M369.455,141.969c0-0.332-0.268-0.59-0.59-0.59h-4.583
	c-0.332,0-0.59,0.258-0.59,0.59c0,0.322,0.258,0.602,0.59,0.602h1.696v5.73c0,0.332,0.269,0.59,0.59,0.59
	c0.333,0,0.59-0.258,0.59-0.59v-5.73h1.707C369.188,142.568,369.455,142.291,369.455,141.969 M359.102,145.939l0.869-2.309
	l0.868,2.309H359.102z M361.805,148.516c0.086,0.235,0.312,0.375,0.548,0.375c0.074,0,0.151-0.011,0.204-0.033
	c0.311-0.117,0.461-0.461,0.354-0.771l-2.371-6.319c-0.096-0.236-0.32-0.388-0.567-0.377c-0.235-0.011-0.474,0.141-0.569,0.377
	l-2.371,6.319c-0.106,0.312,0.042,0.653,0.354,0.771c0.063,0.022,0.128,0.033,0.203,0.033c0.235,0,0.461-0.14,0.559-0.375
	l0.525-1.396h2.607L361.805,148.516z M351.782,148.891l0.012-0.011c0,0,0,0.011,0.021,0.011h3.479c0.31,0,0.59-0.268,0.59-0.59
	c0-0.334-0.28-0.602-0.59-0.602h-2.909v-1.975h2.5c0.321,0,0.59-0.269,0.59-0.602c0-0.312-0.269-0.59-0.59-0.59h-2.5v-1.965h2.909
	c0.31,0,0.59-0.269,0.59-0.602c0-0.332-0.28-0.59-0.59-0.59h-3.479h-0.021h-0.012c-0.332,0-0.59,0.258-0.59,0.59v6.332
	C351.193,148.623,351.45,148.891,351.782,148.891 M346.954,144.781h-1.32v-2.213h1.32c0.61,0,1.104,0.496,1.104,1.117
	C348.06,144.287,347.565,144.781,346.954,144.781 M349.187,147.634c-0.021-0.104-0.053-0.311-0.043-0.633
	c0-0.45-0.139-0.847-0.354-1.158c-0.105-0.161-0.234-0.288-0.375-0.397c0.517-0.428,0.839-1.051,0.839-1.76
	c0-1.275-1.021-2.307-2.298-2.307h-1.91h-0.01c-0.334,0-0.592,0.258-0.592,0.59v6.332c0,0.322,0.258,0.59,0.592,0.59
	c0.331,0,0.6-0.268,0.6-0.59v-2.33h1.267c0.1,0.023,0.377,0.107,0.603,0.258c0.128,0.088,0.257,0.192,0.321,0.312
	c0.075,0.118,0.117,0.258,0.128,0.461c0,0.591,0.076,0.979,0.228,1.288c0.084,0.151,0.203,0.29,0.343,0.375
	c0.15,0.099,0.311,0.119,0.418,0.119h0.012c0.107,0,0.192-0.021,0.235-0.032c0.311-0.107,0.482-0.439,0.375-0.751
	C349.496,147.816,349.358,147.688,349.187,147.634 M340.033,148.891c0.944,0,1.804-0.312,2.479-0.836
	c0.257-0.203,0.299-0.591,0.104-0.859c-0.214-0.258-0.61-0.301-0.857-0.117c-0.482,0.387-1.062,0.59-1.728,0.59
	c-0.739,0-1.428-0.301-1.933-0.771c-0.48-0.475-0.782-1.139-0.782-1.866c0-0.73,0.302-1.374,0.782-1.867
	c0.505-0.474,1.191-0.772,1.933-0.772c0.666,0,1.256,0.203,1.728,0.59c0.247,0.193,0.645,0.149,0.857-0.119
	c0.193-0.268,0.151-0.644-0.104-0.856c-0.677-0.526-1.535-0.837-2.479-0.837c-2.146,0.011-3.927,1.738-3.938,3.863
	C336.107,147.163,337.889,148.891,340.033,148.891"/>
<path fill="#C6BA2F" d="M66.846,94.021c0.045-13.333,11.274-23.77,31.614-23.77c13.536,0,22.614,4.485,27.82,7.544v-9.785
	c-6.206-3.061-15.483-6.372-27.82-6.372c-25.147,0-40.145,14.188-40.227,32.325H58.23c0,0.021,0.001,0.038,0.001,0.058
	c0,0.019-0.001,0.037-0.001,0.057h0.003c-0.251,25.688,23.481,32.77,34.765,32.77c28.301,0,31.104-18.396,31.104-25.918
	c0-7.627-6.055-22.454-25.129-22.788c-21.503-0.374-22.653,13.084-22.751,18.84c-0.114,6.688,8.557,16.554,19.917,13.539
	c4.808-1.275,7.626-4.229,9.812-10.115c0.054-0.147-6.455-3.816-6.455-3.816s-0.35,5.299-5.32,6.346
	c-3.693,0.777-9.006-1.066-9.419-7.326c-0.444-6.736,4.688-10.204,13.693-10.204c9.005,0,17.214,7.888,17.214,15.895
	c0,11.972-10.5,17.23-17.562,17.562C73.081,120.036,66.887,105.777,66.846,94.021"/>
<path fill="#BCBEC0" d="M176.699,126.449c-5.867,4.699-12.687,6.24-14.584,6.24c-3.729,0-4.547-3.371-4.547-5.955l0.041-91.783
	h-6.211l-0.041,91.783c0,6.969,2.847,9.871,5.234,11.076c4.717,2.387,14.649-0.254,23.828-6.891L176.699,126.449z"/>
<path fill="#BCBEC0" d="M183.277,133.951c-11.426,9.955-22.863,10.195-28.391,7.555c-4.027-1.925-7.364-4.828-7.364-11.464
	l-0.067-95.091h-5.882l0.068,96.402c0,7.25,4.042,12.689,10.445,15.75c9.395,4.491,23.632,0.58,35.173-8.393L183.277,133.951z"/>
<path fill="#BCBEC0" d="M189.424,141.223c-10.042,10.387-27.138,14.024-38.938,9.205c-5.633-2.302-12.393-8.22-12.393-19.83
	l-0.068-95.623h-6.129l0.068,95.623c0,11.686,5.965,20.823,16.366,25.072c13.772,5.627,33.218,1.25,44.902-10.177L189.424,141.223z"
	/>
<path fill="#BCBEC0" d="M161.318,123.464c0,3.503,1.993,6.802,6.948,3.894c4.997-2.935,5.572-3.438,5.572-3.438l-2.766-3.7
	c0,0-1.713,1.104-2.741,1.658c-1.274,0.687-1.776,0.019-1.776-2.343c0-0.846-0.04-1.715-0.04-3.078
	c0-6.199-0.068-81.506-0.068-81.506l-5.221,0.01L161.318,123.464z"/>
<path fill="#FFFFFF" d="M435.924,70.221L435.924,70.221c3.251,2.566,8.439,5.647,14.602,5.703c4.049,0,7.757-1.197,10.552-3.25
	c2.853-2.054,4.904-5.19,4.904-8.84c0-1.769-0.514-3.479-1.367-4.849c-1.312-2.11-3.366-3.594-5.705-4.734
	c-2.279-1.082-4.962-1.824-7.871-2.395h-0.113c-3.08-0.571-5.647-1.483-7.13-2.511c-0.74-0.513-1.255-1.025-1.538-1.482
	c-0.287-0.456-0.401-0.912-0.401-1.597c0-1.198,0.629-2.453,2.168-3.594c1.54-1.141,3.821-1.938,6.389-1.938
	c3.48,0,6.274,1.71,9.184,3.651c1.369,0.911,3.193,0.512,4.051-0.854c0.912-1.313,0.514-3.139-0.798-4.05
	c-2.909-1.883-6.959-4.563-12.437-4.563c-3.708,0-7.187,1.084-9.866,3.023c-2.624,1.939-4.563,4.906-4.563,8.328
	c0,1.711,0.457,3.307,1.312,4.678c1.255,1.995,3.139,3.422,5.306,4.448s4.678,1.712,7.357,2.225h0.114
	c3.364,0.627,6.16,1.597,7.813,2.682c0.854,0.57,1.37,1.14,1.711,1.71c0.344,0.571,0.514,1.083,0.514,1.826
	c0,1.425-0.741,2.852-2.453,4.106c-1.71,1.255-4.276,2.11-7.129,2.11c-4.049,0.058-8.385-2.338-10.895-4.391
	c-1.255-1.027-3.138-0.855-4.164,0.399C434.497,67.312,434.668,69.194,435.924,70.221 M407.549,75.981l0.059-0.057
	c0,0,0,0.057,0.114,0.057H426.2c1.653,0,3.138-1.424,3.138-3.137c0-1.768-1.483-3.193-3.138-3.193h-15.457V59.155h13.288
	c1.713,0,3.14-1.424,3.14-3.194c0-1.653-1.427-3.137-3.14-3.137h-13.288V42.386H426.2c1.653,0,3.138-1.426,3.138-3.194
	s-1.483-3.135-3.138-3.135h-18.479h-0.114h-0.059c-1.768,0-3.138,1.367-3.138,3.135v33.652
	C404.411,74.557,405.781,75.981,407.549,75.981 M376.207,75.412c0.172,0.113,0.399,0.286,0.516,0.342h0.055c0,0,0.06,0,0.06,0.057
	c0.112,0,0.342,0.058,0.456,0.114h0.112c0.171,0.057,0.399,0.057,0.569,0.057c0.173,0,0.344,0,0.572-0.057h0.114
	c0.17-0.056,0.284-0.114,0.455-0.114c0.058-0.057,0.058-0.057,0.114-0.057c0.171-0.056,0.342-0.229,0.456-0.285l0.113-0.057
	c0.114-0.114,0.229-0.172,0.344-0.286c0.056-0.057,0.056-0.057,0.114-0.17c0.056-0.115,0.227-0.229,0.285-0.343
	c0.056,0,0.056,0,0.056-0.057c0.115-0.115,0.171-0.342,0.228-0.457l14.089-33.312c0.63-1.541-0.112-3.422-1.709-4.048
	c-1.543-0.684-3.424,0.058-4.106,1.653l-11.125,26.409l-11.121-26.409c-0.684-1.596-2.511-2.337-4.05-1.653
	c-1.653,0.626-2.396,2.507-1.709,4.048L375.068,74.1c0.113,0.115,0.228,0.342,0.285,0.457c0,0.057,0.057,0.057,0.057,0.057
	c0.058,0.114,0.171,0.228,0.284,0.343c0,0.113,0.059,0.113,0.059,0.17c0.171,0.113,0.284,0.172,0.398,0.286L376.207,75.412
	L376.207,75.412z M347.662,72.844L347.662,72.844c0,1.769,1.368,3.137,3.138,3.137c1.711,0,3.192-1.368,3.192-3.137V39.192
	c0-1.768-1.481-3.135-3.192-3.135c-1.77,0-3.138,1.367-3.138,3.135V72.844z M311.474,75.981c1.768,0,3.192-1.368,3.192-3.137V59.155
	h14.774v13.688c0,1.769,1.368,3.137,3.137,3.137s3.194-1.368,3.194-3.137V39.192c0-1.768-1.427-3.135-3.194-3.135
	c-1.769,0-3.137,1.367-3.137,3.135v13.689h-14.774V39.192c0-1.768-1.426-3.135-3.192-3.135c-1.768,0-3.137,1.367-3.137,3.135v33.652
	C308.337,74.613,309.705,75.981,311.474,75.981 M285.039,75.981c5.018,0,9.582-1.653,13.174-4.447
	c1.371-1.084,1.598-3.139,0.572-4.564c-1.142-1.369-3.252-1.598-4.563-0.628c-2.568,2.054-5.646,3.138-9.183,3.138
	c-3.938,0-7.588-1.596-10.269-4.107c-2.566-2.51-4.164-6.046-4.164-9.924c0-3.879,1.598-7.301,4.164-9.925
	c2.681-2.509,6.33-4.107,10.269-4.107c3.535,0,6.672,1.084,9.183,3.138c1.312,1.026,3.423,0.799,4.563-0.626
	c1.024-1.427,0.799-3.423-0.572-4.562c-3.592-2.796-8.156-4.45-13.174-4.45c-11.408,0.057-20.877,9.24-20.936,20.534
	C264.162,66.798,273.631,75.981,285.039,75.981 M244.286,54.136h-7.017v-11.75h7.017c3.25,0,5.875,2.625,5.875,5.933
	C250.161,51.512,247.537,54.136,244.286,54.136 M256.151,69.308c-0.114-0.57-0.284-1.654-0.229-3.365
	c0-2.395-0.742-4.506-1.881-6.161c-0.571-0.855-1.255-1.539-1.998-2.109c2.736-2.283,4.45-5.591,4.45-9.354
	c0-6.789-5.42-12.262-12.206-12.262h-10.153h-0.057c-1.769,0-3.138,1.367-3.138,3.135v33.652c0,1.712,1.37,3.137,3.138,3.137
	c1.769,0,3.193-1.424,3.193-3.137V60.468H244c0.514,0.114,1.996,0.571,3.194,1.369c0.684,0.456,1.368,1.025,1.709,1.654
	c0.4,0.628,0.63,1.37,0.687,2.453c0,3.137,0.398,5.191,1.197,6.844c0.456,0.798,1.083,1.541,1.824,1.996
	c0.799,0.515,1.653,0.628,2.225,0.628h0.057c0.57,0,1.026-0.114,1.256-0.172c1.652-0.569,2.565-2.338,1.995-3.991
	C257.803,70.277,257.062,69.593,256.151,69.308 M205.187,60.297l4.622-12.264l4.62,12.264H205.187z M219.562,73.986
	c0.456,1.254,1.653,1.995,2.908,1.995c0.4,0,0.799-0.057,1.084-0.17c1.654-0.627,2.454-2.453,1.881-4.106l-12.604-33.597
	c-0.514-1.255-1.711-2.051-3.022-1.995c-1.256-0.056-2.51,0.74-3.022,1.995L194.18,71.705c-0.57,1.653,0.229,3.479,1.883,4.106
	c0.342,0.114,0.685,0.17,1.083,0.17c1.255,0,2.453-0.741,2.966-1.995l2.795-7.416h13.86L219.562,73.986z"/>
<path fill="#FFFFFF" d="M445.791,126.909h0.058h0.113h18.48c1.654,0,3.137-1.425,3.137-3.138c0-1.768-1.481-3.194-3.137-3.194
	h-15.456V90.12c0-1.711-1.428-3.137-3.195-3.137c-1.77,0-3.137,1.425-3.137,3.137v33.651
	C442.655,125.484,444.022,126.909,445.791,126.909 M412.089,111.225l4.618-12.264l4.62,12.264H412.089z M426.461,124.913
	c0.455,1.255,1.655,1.996,2.909,1.996c0.399,0,0.799-0.058,1.083-0.171c1.656-0.629,2.454-2.452,1.884-4.106l-12.605-33.597
	c-0.513-1.254-1.711-2.052-3.022-1.995c-1.255-0.057-2.51,0.741-3.023,1.995l-12.604,33.597c-0.569,1.654,0.229,3.479,1.883,4.106
	c0.341,0.113,0.684,0.171,1.083,0.171c1.256,0,2.451-0.741,2.965-1.996l2.796-7.415h13.86L426.461,124.913z M377.7,105.062h-7.017
	V93.314h7.017c3.252,0,5.874,2.624,5.874,5.931C383.574,102.439,380.952,105.062,377.7,105.062 M389.565,120.236
	c-0.115-0.57-0.285-1.654-0.229-3.365c0-2.396-0.741-4.506-1.885-6.16c-0.567-0.855-1.253-1.541-1.994-2.111
	c2.738-2.281,4.448-5.589,4.448-9.354c0-6.788-5.419-12.262-12.206-12.262h-10.152h-0.057c-1.77,0-3.139,1.368-3.139,3.137v33.65
	c0,1.713,1.369,3.139,3.139,3.139c1.768,0,3.192-1.426,3.192-3.139v-12.375h6.73c0.514,0.112,1.995,0.568,3.193,1.367
	c0.687,0.457,1.37,1.026,1.711,1.655c0.4,0.627,0.628,1.368,0.686,2.452c0,3.137,0.398,5.189,1.196,6.844
	c0.458,0.801,1.086,1.541,1.826,1.997c0.798,0.515,1.655,0.627,2.225,0.627h0.059c0.57,0,1.025-0.112,1.255-0.171
	c1.654-0.57,2.566-2.339,1.996-3.992C391.22,121.206,390.478,120.52,389.565,120.236 M353.238,90.12
	c0-1.769-1.426-3.137-3.137-3.137h-24.357c-1.768,0-3.135,1.368-3.135,3.137c0,1.711,1.367,3.194,3.135,3.194h9.015v30.458
	c0,1.771,1.426,3.138,3.137,3.138c1.769,0,3.138-1.367,3.138-3.138V93.314h9.069C351.812,93.314,353.238,91.831,353.238,90.12
	 M285.484,100.102l18.252,25.325c0.058,0.115,0.172,0.229,0.285,0.343c0.57,0.685,1.425,1.141,2.339,1.141
	c1.71,0,3.137-1.426,3.137-3.139V90.633c0-1.654-1.427-3.08-3.137-3.08c-1.712,0-3.081,1.426-3.081,3.08v23.501l-18.424-25.497
	c-0.97-1.37-2.907-1.653-4.334-0.685c-0.854,0.627-1.312,1.654-1.255,2.624v0.057v33.139c0,1.713,1.368,3.139,3.137,3.139
	c1.653,0,3.081-1.426,3.081-3.139V100.102L285.484,100.102z M246.021,126.909l0.059-0.058c0,0,0,0.058,0.113,0.058h18.481
	c1.653,0,3.137-1.425,3.137-3.138c0-1.768-1.482-3.194-3.137-3.194h-15.459v-10.495h13.291c1.712,0,3.138-1.424,3.138-3.193
	c0-1.654-1.426-3.136-3.138-3.136h-13.291V93.314h15.459c1.653,0,3.137-1.426,3.137-3.194c0-1.769-1.482-3.137-3.137-3.137h-18.481
	h-0.113h-0.059c-1.768,0-3.137,1.368-3.137,3.137v33.651C242.884,125.484,244.252,126.909,246.021,126.909 M215.568,126.909
	c5.021,0,9.583-1.653,13.177-4.449c1.368-1.082,1.598-3.137,0.569-4.562c-1.141-1.368-3.25-1.599-4.562-0.627
	c-2.567,2.053-5.646,3.137-9.185,3.137c-3.936,0-7.586-1.598-10.266-4.107c-2.567-2.51-4.165-6.046-4.165-9.924
	c0-3.88,1.597-7.302,4.165-9.926c2.68-2.51,6.33-4.106,10.266-4.106c3.538,0,6.674,1.084,9.185,3.136
	c1.312,1.027,3.422,0.8,4.562-0.625c1.028-1.426,0.799-3.422-0.569-4.562c-3.594-2.796-8.156-4.45-13.177-4.45
	c-11.407,0.057-20.876,9.239-20.933,20.534C194.692,117.729,204.161,126.909,215.568,126.909"/>
</svg>
