<?xml version="1.0" encoding="UTF-8" standalone="no"?>
<!DOCTYPE svg PUBLIC "-//W3C//DTD SVG 1.1//EN" "http://www.w3.org/Graphics/SVG/1.1/DTD/svg11.dtd">
<svg width="100%" height="100%" viewBox="0 0 3284 1484" version="1.1" xmlns="http://www.w3.org/2000/svg" xmlns:xlink="http://www.w3.org/1999/xlink" xml:space="preserve" xmlns:serif="http://www.serif.com/" style="fill-rule:evenodd;clip-rule:evenodd;stroke-linejoin:round;stroke-miterlimit:2;">
    <g transform="matrix(4.16667,0,0,4.16667,0,0)">
        <g transform="matrix(0.801081,0,0,0.801081,-44.2238,35.4697)">
            <path d="M177.037,122.664L151.881,87.825L86.549,178.309L151.881,268.801L217.214,178.309L186.84,136.244L177.037,149.824L197.605,178.309L151.881,241.641L106.158,178.309L151.881,114.981L167.231,136.244L177.037,122.664Z" style="fill:white;fill-rule:nonzero;"/>
        </g>
        <g transform="matrix(0.801081,0,0,0.801081,-44.2238,35.4697)">
            <path d="M267.526,178.31L202.194,87.823L136.857,178.31L167.231,220.379L177.038,206.799L156.466,178.31L202.194,114.982L247.917,178.31L202.194,241.642L186.84,220.379L177.038,233.959L202.194,268.798L267.526,178.31Z" style="fill:rgb(82,152,170);fill-rule:nonzero;"/>
        </g>
        <g transform="matrix(1.3948,0,0,1.3948,-224.391,-49.8099)">
            <path d="M527.428,192.215L499.132,192.215L499.132,125.681L490.214,125.681L490.214,200.725L527.428,200.725L527.428,192.215ZM568.843,122.71L566.18,122.71L530.708,200.725L540.448,200.725L551.929,175.606L582.888,175.606L594.472,200.725L603.801,200.725L568.843,122.71ZM556.028,166.689L567.509,141.368L578.892,166.689L556.028,166.689ZM649.421,136.652C646.413,132.413 643.339,129.22 640.195,127.064C637.051,124.912 633.36,123.837 629.121,123.837C623.652,123.837 619.196,125.562 615.743,129.014C612.29,132.467 610.566,136.685 610.566,141.673C610.566,143.998 611.01,146.323 611.899,148.644C612.788,150.969 614.208,153.154 616.154,155.207C618.101,157.257 621.673,160.248 626.866,164.178C632.06,168.108 635.718,171.421 637.837,174.12C639.952,176.82 641.014,179.676 641.014,182.68C641.014,185.688 639.751,188.318 637.22,190.573C634.693,192.828 631.652,193.96 628.097,193.96C622.562,193.96 617.57,189.824 613.13,181.552L605.644,185.857C611.319,197.001 619.142,202.568 629.121,202.568C634.796,202.568 639.767,200.536 644.039,196.47C648.31,192.404 650.446,187.602 650.446,182.067C650.446,177.828 649.08,173.795 646.343,169.968C643.611,166.141 639.286,162.059 633.376,157.717C627.463,153.38 623.689,150.253 622.047,148.339C620.409,146.425 619.587,144.187 619.587,141.623C619.587,139.059 620.459,136.957 622.204,135.319C623.944,133.677 626.097,132.858 628.66,132.858C631.224,132.858 633.463,133.492 635.376,134.755C637.29,136.018 639.611,138.496 642.347,142.187L649.421,136.652ZM700.474,136.652C697.466,132.413 694.388,129.22 691.248,127.064C688.104,124.912 684.412,123.837 680.174,123.837C674.705,123.837 670.248,125.562 666.795,129.014C663.343,132.467 661.619,136.685 661.619,141.673C661.619,143.998 662.063,146.323 662.952,148.644C663.841,150.969 665.256,153.154 667.207,155.207C669.153,157.257 672.725,160.248 677.919,164.178C683.112,168.108 686.77,171.421 688.89,174.12C691.005,176.82 692.067,179.676 692.067,182.68C692.067,185.688 690.799,188.318 688.273,190.573C685.746,192.828 682.701,193.96 679.149,193.96C673.614,193.96 668.623,189.824 664.182,181.552L656.697,185.857C662.372,197.001 670.195,202.568 680.174,202.568C685.844,202.568 690.82,200.536 695.091,196.47C699.363,192.404 701.499,187.602 701.499,182.067C701.499,177.828 700.128,173.795 697.396,169.968C694.663,166.141 690.338,162.059 684.429,157.717C678.515,153.38 674.742,150.253 673.1,148.339C671.462,146.425 670.639,144.187 670.639,141.623C670.639,139.059 671.511,136.957 673.256,135.319C674.997,133.677 677.149,132.858 679.713,132.858C682.277,132.858 684.515,133.492 686.429,134.755C688.342,136.018 690.663,138.496 693.4,142.187L700.474,136.652Z" style="fill:rgb(82,152,170);fill-rule:nonzero;"/>
        </g>
        <g transform="matrix(1.3948,0,0,1.3948,-224.391,-49.8099)">
            <path d="M368.016,125.681L365.864,125.681L336.543,185.244L307.017,125.681L304.865,125.681L294.203,200.725L302.713,200.725L309.684,149.261L335.21,200.725L337.877,200.725L363.094,149.669L370.065,200.725L378.781,200.725L368.016,125.681ZM469.096,125.681L454.335,178.886L434.035,125.681L431.574,125.681L411.073,178.783L396.616,125.681L387.493,125.681L408.612,202.569L411.073,202.569L432.805,146.492L454.13,202.569L456.693,202.569L478.22,125.681L469.096,125.681Z" style="fill:white;fill-rule:nonzero;"/>
        </g>
    </g>
</svg>
